<?xml version="1.0" encoding="UTF-8"?>
<svg width="120px" height="120px" viewBox="0 0 120 120" version="1.1" xmlns="http://www.w3.org/2000/svg" xmlns:xlink="http://www.w3.org/1999/xlink" style="background: #FFFFFF;">
    <!-- Generator: Sketch 44.1 (41455) - http://www.bohemiancoding.com/sketch -->
    <title>Artboard 2</title>
    <desc>Created with Sketch.</desc>
    <defs></defs>
    <g id="Page-1" stroke="none" stroke-width="1" fill="none" fill-rule="evenodd">
        <g id="Artboard-2" fill="#3C4858">
            <path d="M106.29431,-6.54662916 C79.4387068,36.1358759 51.7499318,81.256451 44.7316675,93.1445312 C37.6417883,105.247456 34.0969019,112.874333 34.0969019,116.025391 C34.0969019,119.248063 35.5649862,120.859375 38.5011988,120.859375 C45.0181584,120.859375 56.0825009,109.508577 71.6945581,86.8066406 C72.1242478,86.0904912 72.5181241,85.7324219 72.8761988,85.7324219 C73.3058884,85.7324219 73.52073,85.9472635 73.52073,86.3769531 C73.4491151,86.5917979 73.0910457,87.1647089 72.4465113,88.0957031 L67.8273706,94.4335937 C54.2921467,113.125093 44.3020122,122.470703 37.8566675,122.470703 C34.5623802,122.470703 31.8768602,121.235364 29.8000269,118.764648 C27.7231936,116.293933 26.6847925,113.125019 26.6847925,109.257812 C26.6847925,105.390606 27.9738421,100.914739 30.55198,95.8300781 C18.0193653,113.590584 8.70956254,122.470703 2.62229252,122.470703 C-1.17329938,122.470703 -4.36011647,120.841488 -6.93825436,117.583008 C-9.51639225,114.324528 -10.8054419,110.224634 -10.8054419,105.283203 C-10.8054419,93.4667378 -3.46502047,82.7604646 11.2160425,73.1640625 C22.889278,65.5012638 32.055853,61.6699219 38.7160425,61.6699219 C43.1561689,61.6699219 45.3761988,63.8183379 45.3761988,68.1152344 C45.3761988,70.1204527 44.7674809,72.3762896 43.5500269,74.8828125 L95.430296,-10.5504839 C97.7935891,-9.83433449 100.221046,-13.3715873 102.512724,-13.3715873 C103.085643,-13.3715873 102.427103,-6.2601694 106.29431,-6.54662916 Z M43.7648706,68.9746094 C43.7648706,65.1790175 42.0103309,63.28125 38.5011988,63.28125 C32.055854,63.28125 23.5517073,69.7085946 12.9885035,82.5634766 C2.4252996,95.4183585 -2.85622311,105.784466 -2.85622311,113.662109 C-2.85622311,118.46031 -0.886841759,120.859375 3.05198002,120.859375 C8.78117533,120.859375 18.6280821,110.905047 32.5929956,90.9960938 C40.0409495,80.2538525 43.7648706,72.9134312 43.7648706,68.9746094 Z" id="d"></path>
            <path d="M132.646734,-5.26732667 C132.073815,-4.26471749 120.356348,12.6855372 119.138894,14.6191406 C117.276906,17.6269682 114.483965,22.1028349 110.759988,28.046875 C108.969614,31.1263175 106.21248,35.7454119 102.488503,41.9042969 L84.011941,71.7675781 C77.853056,81.722055 72.6252437,90.7454022 68.3283472,98.8378906 C63.5301461,107.861373 59.6629973,114.843725 56.7267847,119.785156 L55.3303003,121.933594 C53.3966969,121.503904 51.4989294,121.289063 49.636941,121.289063 C48.0614122,121.289063 45.7339616,121.503904 42.6545191,121.933594 C44.3016627,119.140611 46.1278163,115.989601 48.1330347,112.480469 L60.5939722,90.78125 C62.4559607,87.5585776 65.2489015,82.6888347 68.9728785,76.171875 L119.138894,-7.41961231 C122.075107,-6.84669278 125.466626,-9.12635471 126.898925,-9.12635471 C128.331224,-9.12635471 129.495677,-4.69440714 132.646734,-5.26732667 Z M131.062722,86.3769531 C130.991107,86.5917979 130.633038,87.1647089 129.988503,88.0957031 L125.369363,94.4335938 C111.834139,113.125093 101.629163,122.470703 94.7541285,122.470703 C91.674686,122.470703 88.953359,121.432302 86.590066,119.355469 C84.2267729,117.278635 83.0451441,114.915378 83.0451441,112.265625 C83.0451441,109.973947 85.0503324,104.853555 89.0607691,96.9042969 L89.168191,96.4746094 C90.5288748,93.8248565 91.2092066,91.8554752 91.2092066,90.5664062 C91.2092066,88.9908775 90.0275778,87.5227933 87.6642847,86.1621094 C84.9429169,87.3079484 82.6870801,87.8808594 80.8967066,87.8808594 C78.3901836,87.8808594 77.136941,87.1647207 77.136941,85.7324219 C77.136941,84.5149679 78.3185698,83.90625 80.6818628,83.90625 C82.973541,83.90625 85.08615,84.2643193 87.0197535,84.9804688 C90.6005005,83.40494 96.3296099,78.0697069 104.207253,68.9746094 C108.432535,64.1047934 112.765174,61.6699219 117.2053,61.6699219 C122.648036,61.6699219 125.369363,64.2480211 125.369363,69.4042969 C125.369363,72.8418141 123.990796,76.2613762 121.233621,79.6630859 C118.476445,83.0647957 115.737215,84.765625 113.015847,84.765625 C109.936405,84.765625 108.396707,83.3691546 108.396707,80.5761719 C108.396707,77.998034 110.724157,75.2409001 115.379128,72.3046875 C117.312732,71.0872335 118.279519,69.3685007 118.279519,67.1484375 C118.279519,65.4296789 117.169504,64.5703125 114.949441,64.5703125 C111.869998,64.5703125 108.00285,67.2916395 103.347878,72.734375 C97.4038383,79.5377944 92.5699023,83.7630126 88.8459253,85.4101562 C96.2938792,88.8476734 100.0178,92.8222431 100.0178,97.3339844 C100.0178,99.8405073 98.2632606,104.674443 94.7541285,111.835938 C93.2502147,114.843765 92.4982691,116.920567 92.4982691,118.066406 C92.4982691,119.928395 93.6798979,120.859375 96.043191,120.859375 C102.774995,120.859375 113.767724,109.508577 129.021707,86.8066406 C129.523011,86.0904912 129.988501,85.7324219 130.418191,85.7324219 C130.847881,85.7324219 131.062722,85.9472635 131.062722,86.3769531 Z" id="k"></path>
        </g>
    </g>
</svg>